<svg xmlns="http://www.w3.org/2000/svg" xmlns:xlink="http://www.w3.org/1999/xlink" viewBox="0,0,256,256" width="50px" height="50px" fill-rule="nonzero"><g fill="#ffffff" fill-rule="nonzero" stroke="none" stroke-width="1" stroke-linecap="butt" stroke-linejoin="miter" stroke-miterlimit="10" stroke-dasharray="" stroke-dashoffset="0" font-family="none" font-weight="none" font-size="none" text-anchor="none" style="mix-blend-mode: normal"><g transform="scale(5.12,5.12)"><path d="M25,-0.00391c-0.56519,0 -1.13142,0.21345 -1.55664,0.63867l-22.80859,22.81055c-0.85045,0.85045 -0.85045,2.26088 0,3.11133l22.80859,22.80859c0.85049,0.85049 2.26083,0.8508 3.11133,0l22.81055,-22.80859c0.85045,-0.85045 0.85045,-2.26088 0,-3.11133l-22.81055,-22.81055c-0.42522,-0.42522 -0.9895,-0.63867 -1.55469,-0.63867zM24.99805,1.98242c0.04891,0 0.0988,0.02263 0.14258,0.06641l22.81055,22.81055c0.08755,0.08755 0.08755,0.19565 0,0.2832l-22.81055,22.81055c-0.08564,0.08583 -0.19615,0.08515 -0.2832,-0.00195l-22.80859,-22.80859c-0.08755,-0.08755 -0.08755,-0.19565 0,-0.2832l22.80859,-22.81055c0.04378,-0.04378 0.09171,-0.06641 0.14063,-0.06641zM21,10v3h-4v11h4v3h8v-3h1c2.74952,0 5,-2.25048 5,-5v-1c0,-2.74952 -2.25048,-5 -5,-5h-1v-3zM23,12h4v2v1v7v1v2h-4v-3v-8zM19,15h2v7h-2zM29,15h1c1.66848,0 3,1.33152 3,3v1c0,1.66848 -1.33152,3 -3,3h-1zM4.58594,25l20.41406,20.41406l20.41406,-20.41406h-2.41406h-8.41406l-9.58594,9.58594l-9.58594,-9.58594zM9.41406,27h5.17188l10.41406,10.41406l10.41406,-10.41406h5.17188l-15.58594,15.58594z"></path></g></g></svg>