<svg xmlns="http://www.w3.org/2000/svg" xmlns:xlink="http://www.w3.org/1999/xlink" viewBox="0,0,256,256" width="50px" height="50px" fill-rule="nonzero"><g fill="#ffffff" fill-rule="nonzero" stroke="none" stroke-width="1" stroke-linecap="butt" stroke-linejoin="miter" stroke-miterlimit="10" stroke-dasharray="" stroke-dashoffset="0" font-family="none" font-weight="none" font-size="none" text-anchor="none" style="mix-blend-mode: normal"><g transform="scale(5.12,5.12)"><path d="M17.5,1c-4.687,0 -8.5,3.813 -8.5,8.5v9.01367c0.419,-0.318 0.935,-0.51367 1.5,-0.51367h1.5v-8.5c0,-2.864 2.201,-5.22552 5,-5.47852v10.47852c0,3.584 2.916,6.5 6.5,6.5h3c3.584,0 6.5,-2.916 6.5,-6.5v-10.47852c2.799,0.253 5,2.61352 5,5.47852v8.5h1.5c0.565,0 1.081,0.19567 1.5,0.51367v-9.01367c0,-4.687 -3.813,-8.5 -8.5,-8.5h-1c-0.829,0 -1.5,0.672 -1.5,1.5v12c0,1.93 -1.57,3.5 -3.5,3.5h-3c-1.93,0 -3.5,-1.57 -3.5,-3.5v-12c0,-0.828 -0.671,-1.5 -1.5,-1.5zM10.5,20c-0.276,0 -0.5,0.224 -0.5,0.5v23c0,0.276 0.224,0.5 0.5,0.5h1c0.276,0 0.5,-0.224 0.5,-0.5v-23c0,-0.276 -0.224,-0.5 -0.5,-0.5zM38.5,20c-0.276,0 -0.5,0.224 -0.5,0.5v21.5v0.92188l-2.375,2.07813h-5.88672c-0.63514,-1.19763 -2.33286,-1.99877 -4.23828,-2c-2.48528,0 -4.5,1.34315 -4.5,3c0,1.65685 2.01472,3 4.5,3c1.90471,-0.00178 3.60143,-0.80282 4.23633,-2h6.26367c0.2422,-0.00025 0.47608,-0.08839 0.6582,-0.24805l3,-2.625c0.21695,-0.1897 0.34153,-0.46376 0.3418,-0.75195v-0.375v-1v-21.5c0,-0.276 -0.224,-0.5 -0.5,-0.5zM8,21c-2.10208,0 -3.90671,1.4056 -5.10742,3.46875c-1.20071,2.06315 -1.89258,4.84637 -1.89258,8.03125c0,3.18488 0.69187,5.9681 1.89258,8.03125c1.20071,2.06315 3.00534,3.46875 5.10742,3.46875c0.55226,-0.00006 0.99994,-0.44774 1,-1v-21c-0.00006,-0.55226 -0.44774,-0.99994 -1,-1zM42,21c-0.55226,0.00006 -0.99994,0.44774 -1,1v21c0.00006,0.55226 0.44774,0.99994 1,1c2.10208,0 3.90671,-1.4056 5.10742,-3.46875c1.20071,-2.06315 1.89258,-4.84637 1.89258,-8.03125c0,-3.18488 -0.69187,-5.9681 -1.89258,-8.03125c-1.20071,-2.06315 -3.00534,-3.46875 -5.10742,-3.46875zM14,23v18h22v-18zM7,23.34375v18.3125c-0.85295,-0.32912 -1.68093,-0.93154 -2.37891,-2.13086c-0.97079,-1.6681 -1.62109,-4.13527 -1.62109,-7.02539c0,-2.89012 0.6503,-5.35729 1.62109,-7.02539c0.69798,-1.19932 1.52596,-1.80174 2.37891,-2.13086zM43,23.34375c0.85295,0.32912 1.68093,0.93154 2.37891,2.13086c0.97079,1.6681 1.62109,4.13527 1.62109,7.02539c0,2.89012 -0.6503,5.35729 -1.62109,7.02539c-0.69798,1.19932 -1.52596,1.80174 -2.37891,2.13086zM16,25h2.93555c0.763,0 1.38333,0.29848 1.86133,0.89648c0.478,0.596 0.7168,1.60162 0.7168,3.01563c0,0.521 -0.06812,0.99116 -0.20312,1.41016c-0.135,0.419 -0.30939,0.78003 -0.52539,1.08203c0.354,0.328 0.64605,0.77494 0.87305,1.33594c0.228,0.562 0.3418,1.27758 0.3418,2.14258c0,1.292 -0.25381,2.29839 -0.75781,3.02539c-0.505,0.727 -1.17662,1.0918 -2.01563,1.0918h-3.22656zM23,25h2v11h3v3h-5zM29,25h5v3h-3v2h2.5v3h-2.5v3h3v3h-5zM18.03125,27.63672v2.80859h0.78125c0.293,0 0.52345,-0.11284 0.68945,-0.33984c0.165,-0.227 0.24805,-0.58622 0.24805,-1.07422c0,-0.532 -0.07652,-0.8957 -0.22852,-1.0957c-0.152,-0.199 -0.36095,-0.29883 -0.62695,-0.29883zM18,33v3.375h1c0.272,0 0.58891,-0.14083 0.75391,-0.42383c0.165,-0.282 0.24609,-0.68317 0.24609,-1.20117c0,-0.567 -0.07556,-0.99883 -0.22656,-1.29883c-0.152,-0.3 -0.52244,-0.45117 -0.77344,-0.45117z"></path></g></g></svg>